<svg xmlns="http://www.w3.org/2000/svg" shape-rendering="crispEdges" viewBox="0 -0.5 44 44"><path stroke="#1a1a2e" d="M3 0h38M2 1h40M1 2h25m7 0h10M0 3h24m2 0h7m2 0h9M0 4h23m1 0h2m7 0h2m1 0h8M0 5h22m1 0h2m1 0h7m2 0h1m1 0h7M0 6h21m1 0h2m1 0h9m1 0h1m1 0h7M0 7h17m5 0h1m3 0h6m3 0h1m1 0h7M0 8h15m2 0h9m2 0h3m1 0h3m1 0h8M0 9h14m1 0h13m2 0h2m3 0h9M0 10h13m1 0h3m10 0h3m1 0h13M0 11h12m1 0h3m1 0h10m1 0h3m1 0h12M0 12h11m1 0h3m1 0h12m1 0h3m1 0h11M0 13h10m1 0h3m1 0h14m1 0h3m1 0h10M0 14h9m1 0h3m1 0h16m1 0h3m1 0h9M0 15h8m1 0h3m1 0h18m1 0h3m1 0h8M0 16h8m1 0h2m1 0h19m1 0h3m1 0h8M0 17h8m1 0h2m1 0h19m1 0h3m1 0h8M0 18h7m1 0h3m1 0h19m1 0h4m1 0h7M0 19h7m1 0h3m1 0h7m1 0h11m1 0h4m1 0h7M0 20h7m1 0h3m1 0h6m2 0h3m3 0h5m1 0h4m1 0h7M0 21h7m1 0h3m1 0h5m4 0h2m5 0h3m1 0h4m1 0h7M0 22h7m1 0h3m1 0h6m4 0h1m1 0h4m1 0h1m3 0h3m1 0h7M0 23h7m1 0h2m3 0h1m15 0h1m3 0h3m1 0h7M0 24h7m1 0h2m3 0h6m4 0h5m1 0h1m3 0h3m1 0h7M0 25h8m1 0h1m3 0h1m15 0h1m3 0h2m1 0h8M0 26h8m1 0h1m3 0h1m15 0h1m2 0h2m1 0h9M0 27h9m1 0h1m2 0h1m15 0h4m1 0h10M0 28h9m1 0h5m13 0h5m1 0h10M0 29h8m1 0h7m12 0h6m1 0h9M0 30h6m2 0h9m4 0h2m4 0h8m3 0h6M0 31h8m2 0h8m8 0h10m1 0h7M0 32h10m1 0h9m4 0h8m4 0h8M0 33h9m1 0h6m1 0h10m1 0h5m1 0h10M0 34h8m7 0h1m1 0h1m1 0h6m1 0h1m1 0h6m1 0h9M0 35h16m1 0h1m2 0h3m3 0h1m1 0h2m2 0h1m3 0h8M0 36h12m2 0h2m1 0h2m6 0h1m1 0h4m2 0h11M0 37h11m2 0h4m1 0h2m4 0h2m1 0h5m2 0h10M0 38h10m2 0h6m1 0h1m4 0h1m1 0h7m2 0h9M0 39h9m2 0h8m1 0h1m2 0h1m1 0h9m1 0h9M0 40h9m1 0h10m1 0h1m1 0h1m1 0h19M1 41h20m1 0h1m1 0h19M2 42h20m1 0h19M3 43h38"/><path stroke="#d9b4b4" d="M26 2h7m-9 1h2m7 0h2M23 4h1m2 0h7m2 0h1M22 5h1m2 0h1m7 0h2m1 0h1M21 6h1m2 0h1m9 0h1m1 0h1M17 7h5m1 0h3m6 0h3m1 0h1M15 8h2m9 0h2m3 0h1m3 0h1M14 9h1m13 0h2m2 0h3m-22 1h1m16 0h1m-19 1h1m18 0h1m-21 1h1m20 0h1m-23 1h1m22 0h1M9 14h1m24 0h1M8 15h1m26 0h1M8 16h1m26 0h1M8 17h1m26 0h1M7 18h1m28 0h1M7 19h1m11 0h1m16 0h1M7 20h1m10 0h2m3 0h3m10 0h1M7 21h1m9 0h4m2 0h5m8 0h1M7 22h1m10 0h4m1 0h1m4 0h1m7 0h1M7 23h1m6 0h15m7 0h1M7 24h1m11 0h4m5 0h1m7 0h1M8 25h1m5 0h2m3 0h5m3 0h2m6 0h1M8 26h1m5 0h3m2 0h6m2 0h2m5 0h1M9 27h1m4 0h15m4 0h1M9 28h1m5 0h13m5 0h1M8 29h1m7 0h12m6 0h1M6 30h2m9 0h4m2 0h4m8 0h3M8 31h2m8 0h8m10 0h1m-27 1h1m9 0h4m8 0h4M9 33h1m6 0h1m10 0h1m5 0h1M8 34h7m1 0h1m1 0h1m6 0h1m1 0h1m6 0h1m-19 1h1m1 0h2m3 0h3m1 0h1m2 0h2m1 0h3m-24 1h2m2 0h1m2 0h6m1 0h1m4 0h2m-22 1h2m4 0h1m2 0h4m2 0h1m5 0h2m-24 1h2m6 0h1m1 0h4m1 0h1m7 0h2M9 39h2m8 0h1m1 0h2m1 0h1m9 0h1M9 40h1m10 0h1m1 0h1m1 0h1m-4 1h1m1 0h1m-2 1h1"/><path stroke="#bc5270" d="M17 10h10m-11 1h1m10 0h1m-13 1h1m12 0h1m-15 1h1m14 0h1m-17 1h1m16 0h1m-19 1h1m18 0h1m-21 1h1m19 0h1m-21 1h1m19 0h1m-21 1h1m19 0h1m-21 1h1m19 0h1m-21 1h1m19 0h1m-21 1h1m19 0h1m-21 1h1m18 0h3m-23 1h3m17 0h3m-23 1h3m17 0h3m-23 1h3m3 0h3m5 0h3m3 0h3m-23 1h3m4 0h2m6 0h2m3 0h2m-21 1h2"/></svg>
