<svg xmlns="http://www.w3.org/2000/svg" shape-rendering="crispEdges" viewBox="0 -0.5 52 76"><path stroke="#1a1a2e" d="M0 0h52M0 1h2m48 0h2M0 2h1m1 0h48m1 0h1M0 3h1m1 0h28m7 0h13m1 0h1M0 4h1m1 0h26m2 0h7m2 0h11m1 0h1M0 5h1m1 0h25m1 0h2m7 0h2m1 0h10m1 0h1M0 6h1m1 0h24m1 0h2m1 0h7m2 0h1m1 0h9m1 0h1M0 7h1m1 0h23m1 0h2m1 0h9m1 0h1m1 0h9m1 0h1M0 8h1m1 0h3m21 0h1m12 0h1m7 0h3m1 0h1M0 9h1m1 0h2m1 0h14m2 0h9m2 0h3m1 0h3m1 0h7m1 0h2m1 0h1M0 10h1m1 0h2m1 0h13m1 0h13m2 0h2m3 0h8m1 0h2m1 0h1M0 11h1m1 0h2m1 0h12m1 0h3m10 0h3m1 0h12m1 0h2m1 0h1M0 12h1m1 0h2m1 0h11m1 0h3m1 0h10m1 0h3m1 0h11m1 0h2m1 0h1M0 13h1m1 0h2m1 0h10m1 0h3m1 0h12m1 0h3m1 0h10m1 0h2m1 0h1M0 14h1m1 0h2m1 0h9m1 0h3m1 0h14m1 0h3m1 0h9m1 0h2m1 0h1M0 15h1m1 0h2m1 0h8m1 0h3m1 0h16m1 0h3m1 0h8m1 0h2m1 0h1M0 16h1m1 0h2m1 0h7m1 0h3m1 0h18m1 0h3m1 0h7m1 0h2m1 0h1M0 17h1m1 0h2m1 0h7m1 0h2m1 0h19m1 0h3m1 0h7m1 0h2m1 0h1M0 18h1m1 0h2m1 0h7m1 0h2m1 0h19m1 0h3m1 0h7m1 0h2m1 0h1M0 19h1m1 0h2m1 0h6m1 0h3m1 0h19m1 0h4m1 0h6m1 0h2m1 0h1M0 20h1m1 0h2m1 0h6m1 0h3m1 0h7m1 0h11m1 0h4m1 0h6m1 0h2m1 0h1M0 21h1m1 0h2m1 0h6m1 0h3m1 0h6m2 0h3m3 0h5m1 0h4m1 0h6m1 0h2m1 0h1M0 22h1m1 0h2m1 0h6m1 0h3m1 0h5m4 0h2m5 0h3m1 0h4m1 0h6m1 0h2m1 0h1M0 23h1m1 0h2m1 0h6m1 0h3m1 0h6m4 0h1m1 0h4m1 0h1m3 0h3m1 0h6m1 0h2m1 0h1M0 24h1m1 0h2m1 0h6m1 0h2m3 0h1m15 0h1m3 0h3m1 0h6m1 0h2m1 0h1M0 25h1m1 0h2m1 0h6m1 0h2m3 0h6m4 0h5m1 0h1m3 0h3m1 0h6m1 0h2m1 0h1M0 26h1m1 0h2m1 0h7m1 0h1m3 0h1m15 0h1m3 0h2m1 0h7m1 0h2m1 0h1M0 27h1m1 0h2m1 0h7m1 0h1m3 0h1m15 0h1m2 0h2m1 0h8m1 0h2m1 0h1M0 28h1m1 0h2m1 0h8m1 0h1m2 0h1m15 0h4m1 0h9m1 0h2m1 0h1M0 29h1m1 0h2m1 0h8m1 0h5m13 0h5m1 0h9m1 0h2m1 0h1M0 30h1m1 0h2m1 0h7m1 0h7m12 0h6m1 0h8m1 0h2m1 0h1M0 31h1m1 0h2m1 0h5m2 0h9m4 0h2m4 0h8m3 0h5m1 0h2m1 0h1M0 32h1m1 0h2m1 0h7m2 0h8m8 0h10m1 0h6m1 0h2m1 0h1M0 33h1m1 0h2m1 0h9m1 0h9m4 0h8m4 0h7m1 0h2m1 0h1M0 34h1m1 0h2m1 0h8m1 0h6m1 0h10m1 0h5m1 0h9m1 0h2m1 0h1M0 35h1m1 0h2m1 0h7m7 0h1m1 0h1m1 0h6m1 0h1m1 0h6m1 0h8m1 0h2m1 0h1M0 36h1m1 0h2m1 0h15m1 0h1m2 0h3m3 0h1m1 0h2m2 0h1m3 0h7m1 0h2m1 0h1M0 37h1m1 0h2m1 0h11m2 0h2m1 0h2m6 0h1m1 0h4m2 0h10m1 0h2m1 0h1M0 38h1m1 0h2m1 0h10m2 0h4m1 0h2m4 0h2m1 0h5m2 0h9m1 0h2m1 0h1M0 39h1m1 0h2m1 0h9m2 0h6m1 0h1m4 0h1m1 0h7m2 0h8m1 0h2m1 0h1M0 40h1m1 0h2m1 0h8m2 0h8m1 0h1m2 0h1m1 0h9m1 0h8m1 0h2m1 0h1M0 41h1m1 0h2m1 0h8m1 0h10m1 0h1m1 0h1m1 0h18m1 0h2m1 0h1M0 42h1m1 0h3m42 0h3m1 0h1M0 43h1m1 0h48m1 0h1M0 44h1m1 0h48m1 0h1M0 45h1m1 0h48m1 0h1M0 46h1m1 0h48m1 0h1M0 47h1m1 0h48m1 0h1M0 48h1m1 0h48m1 0h1M0 49h1m1 0h10m2 0h25m3 0h8m1 0h1M0 50h1m1 0h9m4 0h23m5 0h7m1 0h1M0 51h1m1 0h9m4 0h22m7 0h6m1 0h1M0 52h1m1 0h9m4 0h22m2 0h3m2 0h6m1 0h1M0 53h1m1 0h9m4 0h22m7 0h6m1 0h1M0 54h1m1 0h5m12 0h19m5 0h7m1 0h1M0 55h1m1 0h4m14 0h19m3 0h8m1 0h1M0 56h1m1 0h4m14 0h12m3 0h15m1 0h1M0 57h1m1 0h5m12 0h12m5 0h14m1 0h1M0 58h1m1 0h9m4 0h15m3 0h1m3 0h13m1 0h1M0 59h1m1 0h9m4 0h15m2 0h3m2 0h13m1 0h1M0 60h1m1 0h9m4 0h15m3 0h1m3 0h13m1 0h1M0 61h1m1 0h9m4 0h16m5 0h14m1 0h1M0 62h1m1 0h10m2 0h18m3 0h15m1 0h1M0 63h1m1 0h48m1 0h1M0 64h1m1 0h48m1 0h1M0 65h1m1 0h48m1 0h1M0 66h1m1 0h20m2 0h3m2 0h21m1 0h1M0 67h1m1 0h20m2 0h3m2 0h21m1 0h1M0 68h1m2 0h19m2 0h3m2 0h20m2 0h1M0 69h1m3 0h44m3 0h1M0 70h1m50 0h1M0 71h1m50 0h1M0 72h1m50 0h1M0 73h1m50 0h1M0 74h2m48 0h2M0 75h52"/><path stroke="#bc5270" d="M2 1h48M1 2h1m48 0h1M1 3h1m48 0h1M1 4h1m48 0h1M1 5h1m48 0h1M1 6h1m48 0h1M1 7h1m48 0h1M1 8h1m3 0h16m9 0h6m5 0h6m3 0h1M1 9h1m2 0h1m42 0h1m2 0h1M1 10h1m2 0h1m42 0h1m2 0h1M1 11h1m2 0h1m16 0h10m16 0h1m2 0h1M1 12h1m2 0h1m15 0h1m10 0h1m15 0h1m2 0h1M1 13h1m2 0h1m14 0h1m12 0h1m14 0h1m2 0h1M1 14h1m2 0h1m13 0h1m14 0h1m13 0h1m2 0h1M1 15h1m2 0h1m12 0h1m16 0h1m12 0h1m2 0h1M1 16h1m2 0h1m11 0h1m18 0h1m11 0h1m2 0h1M1 17h1m2 0h1m10 0h1m19 0h1m11 0h1m2 0h1M1 18h1m2 0h1m10 0h1m19 0h1m11 0h1m2 0h1M1 19h1m2 0h1m10 0h1m19 0h1m11 0h1m2 0h1M1 20h1m2 0h1m10 0h1m19 0h1m11 0h1m2 0h1M1 21h1m2 0h1m10 0h1m19 0h1m11 0h1m2 0h1M1 22h1m2 0h1m10 0h1m19 0h1m11 0h1m2 0h1M1 23h1m2 0h1m10 0h1m18 0h3m10 0h1m2 0h1M1 24h1m2 0h1m9 0h3m17 0h3m10 0h1m2 0h1M1 25h1m2 0h1m9 0h3m17 0h3m10 0h1m2 0h1M1 26h1m2 0h1m9 0h3m3 0h3m5 0h3m3 0h3m10 0h1m2 0h1M1 27h1m2 0h1m9 0h3m4 0h2m6 0h2m3 0h2m11 0h1m2 0h1M1 28h1m2 0h1m10 0h2m30 0h1m2 0h1M1 29h1m2 0h1m42 0h1m2 0h1M1 30h1m2 0h1m42 0h1m2 0h1M1 31h1m2 0h1m42 0h1m2 0h1M1 32h1m2 0h1m42 0h1m2 0h1M1 33h1m2 0h1m42 0h1m2 0h1M1 34h1m2 0h1m42 0h1m2 0h1M1 35h1m2 0h1m42 0h1m2 0h1M1 36h1m2 0h1m42 0h1m2 0h1M1 37h1m2 0h1m42 0h1m2 0h1M1 38h1m2 0h1m42 0h1m2 0h1M1 39h1m2 0h1m42 0h1m2 0h1M1 40h1m2 0h1m42 0h1m2 0h1M1 41h1m2 0h1m42 0h1m2 0h1M1 42h1m3 0h42m3 0h1M1 43h1m48 0h1M1 44h1m48 0h1M1 45h1m48 0h1M1 46h1m48 0h1M1 47h1m48 0h1M1 48h1m48 0h1M1 49h1m48 0h1M1 50h1m48 0h1M1 51h1m48 0h1M1 52h1m48 0h1M1 53h1m48 0h1M1 54h1m48 0h1M1 55h1m48 0h1M1 56h1m48 0h1M1 57h1m48 0h1M1 58h1m48 0h1M1 59h1m48 0h1M1 60h1m48 0h1M1 61h1m48 0h1M1 62h1m48 0h1M1 63h1m48 0h1M1 64h1m48 0h1M1 65h1m48 0h1M1 66h1m48 0h1M1 67h1m48 0h1M1 68h2m46 0h2M1 69h3m44 0h3M1 70h50M1 71h50M1 72h50M1 73h50M2 74h48"/><path stroke="#d9b4b4" d="M30 3h7m-9 1h2m7 0h2M27 5h1m2 0h7m2 0h1M26 6h1m2 0h1m7 0h2m1 0h1M25 7h1m2 0h1m9 0h1m1 0h1M21 8h5m1 0h3m6 0h3m1 0h1M19 9h2m9 0h2m3 0h1m3 0h1m-22 1h1m13 0h2m2 0h3m-22 1h1m16 0h1m-19 1h1m18 0h1m-21 1h1m20 0h1m-23 1h1m22 0h1m-25 1h1m24 0h1m-27 1h1m26 0h1m-28 1h1m26 0h1m-28 1h1m26 0h1m-29 1h1m28 0h1m-30 1h1m11 0h1m16 0h1m-30 1h1m10 0h2m3 0h3m10 0h1m-30 1h1m9 0h4m2 0h5m8 0h1m-30 1h1m10 0h4m1 0h1m4 0h1m7 0h1m-30 1h1m6 0h15m7 0h1m-30 1h1m11 0h4m5 0h1m7 0h1m-29 1h1m5 0h2m3 0h5m3 0h2m6 0h1m-28 1h1m5 0h3m2 0h6m2 0h2m5 0h1m-26 1h1m4 0h15m4 0h1m-25 1h1m5 0h13m5 0h1m-26 1h1m7 0h12m6 0h1m-29 1h2m9 0h4m2 0h4m8 0h3m-30 1h2m8 0h8m10 0h1m-27 1h1m9 0h4m8 0h4m-27 1h1m6 0h1m10 0h1m5 0h1m-26 1h7m1 0h1m1 0h1m6 0h1m1 0h1m6 0h1m-19 1h1m1 0h2m3 0h3m1 0h1m2 0h2m1 0h3m-24 1h2m2 0h1m2 0h6m1 0h1m4 0h2m-22 1h2m4 0h1m2 0h4m2 0h1m5 0h2m-24 1h2m6 0h1m1 0h4m1 0h1m7 0h2m-26 1h2m8 0h1m1 0h2m1 0h1m9 0h1m-26 1h1m10 0h1m1 0h1m1 0h1m-17 8h2m25 0h3m-31 1h4m23 0h5m-32 1h4m22 0h7m-33 1h4m22 0h2m3 0h2m-33 1h4m22 0h7M7 54h12m19 0h5M6 55h14m19 0h3M6 56h14m12 0h3M7 57h12m12 0h5m-25 1h4m15 0h3m1 0h3m-26 1h4m15 0h2m3 0h2m-26 1h4m15 0h3m1 0h3m-26 1h4m16 0h5m-24 1h2m18 0h3m-13 4h2m3 0h2m-7 1h2m3 0h2m-7 1h2m3 0h2"/></svg>
